<svg viewBox="0 0 20 20" xmlns="http://www.w3.org/2000/svg">
  <path d="M15 4.5 C13.6 3.8 12.1 3.4 10.5 3.2 C10.3 3.6 10.1 4.1 9.9 4.5 C8.2 4.3 6.6 3.9 5.1 3.2 C3.2 6.2 2.7 9.1 2.9 12 C4.4 13 6.1 13.7 7.9 14 C8.2 13.5 8.5 13 8.8 12.4 C8.1 12.2 7.5 11.8 7 11.4 C7.2 11.2 7.4 11.1 7.6 10.9 C10.4 12.2 13.6 12.2 16.4 10.9 C16.6 11.1 16.8 11.2 17 11.4 C16.5 11.8 15.9 12.2 15.2 12.4 C15.5 13 15.8 13.5 16.1 14 C17.9 13.7 19.6 13 21.1 12 C21.3 8.7 20.4 5.9 18.9 3.2 Z" fill="#5865F2"/>
  <circle cx="7.8" cy="9" r="1.6" fill="white"/>
  <circle cx="12.2" cy="9" r="1.6" fill="white"/>
</svg>
