<svg xmlns="http://www.w3.org/2000/svg" width="20" height="20" viewBox="0 0 20 20">
  <!-- Google G logo approximation -->
  <path fill="#4285F4" d="M10 4.5C12.5 4.5 14.2 5.6 15.1 6.4L17.1 4.4C15.5 2.9 13.4 2 10 2 6.1 2 2.8 4.2 1.2 7.4L3.6 9.3C4.4 6.6 7 4.5 10 4.5Z"/>
  <path fill="#34A853" d="M18 10.2C18 9.5 17.9 8.9 17.8 8.3H10V11.8H14.5C14.3 12.9 13.6 13.8 12.6 14.4L14.9 16.2C16.7 14.6 18 12.6 18 10.2Z"/>
  <path fill="#FBBC05" d="M3.6 11.7C3.4 11.2 3.3 10.6 3.3 10 3.3 9.4 3.4 8.8 3.6 8.3L1.2 6.4C0.4 7.8 0 9.3 0 10 0 10.7 0.4 12.2 1.2 13.6L3.6 11.7Z"/>
  <path fill="#EA4335" d="M10 18C12.8 18 15.2 17.1 16.9 15.5L14.6 13.7C13.7 14.3 12.5 14.7 10 14.7 7 14.7 4.4 12.6 3.6 9.9L1.2 11.8C2.8 15.1 6.1 18 10 18Z"/>
  <path fill="#4285F4" d="M10 9.8H17.8C17.9 10.2 18 10.6 18 11.1H10V9.8Z"/>
</svg>
