<svg version="1.2" xmlns="http://www.w3.org/2000/svg" viewBox="0 0 512 512" width="512" height="512"><style>.a{fill:#d0232b}.b{fill:#fff}</style><path fill-rule="evenodd" class="a" d="m256 0c141.4 0 256 114.6 256 256 0 141.4-114.6 256-256 256-141.4 0-256-114.6-256-256 0-141.4 114.6-256 256-256z"/><path fill-rule="evenodd" class="b" d="m237.7 323.4l-11.5-30.9c0 0-18.5 20.6-46.2 20.6-24.6 0-42-21.3-42-55.5 0-43.7 22.1-59.4 43.8-59.4 31.3 0 41.2 20.3 49.8 46.3l11.4 35.5c11.4 34.5 32.8 62.3 94.3 62.3 44.1 0 74-13.6 74-49.1 0-28.8-16.4-43.8-47-50.9l-22.7-5c-15.7-3.6-20.3-10-20.3-20.6 0-12.1 9.6-19.3 25.3-19.3 17.1 0 26.3 6.4 27.7 21.7l35.6-4.2c-2.9-32-25-45.2-61.3-45.2-32 0-63.3 12.1-63.3 50.9 0 24.2 11.8 39.5 41.3 46.6l24.2 5.7c18.1 4.3 24.2 11.8 24.2 22.1 0 13.1-12.8 18.5-37 18.5-36 0-50.9-18.9-59.4-44.8l-11.8-35.6c-14.9-46.3-38.7-63.3-86-63.3-52.3 0-80.1 33-80.1 89.3 0 54 27.7 83.2 77.6 83.2 40.2 0 59.4-18.9 59.4-18.9z"/></svg>