<svg version="1.2" xmlns="http://www.w3.org/2000/svg" viewBox="0 0 176 176" width="176" height="176"><style>.a{fill:#f00}.b{fill:#fff}</style><path fill-rule="evenodd" class="a" d="m88 176c-48.7 0-88-39.3-88-88 0-48.7 39.3-88 88-88 48.7 0 88 39.3 88 88 0 48.7-39.3 88-88 88z"/><path class="b" d="m88 42c-25.4 0-46 20.6-46 46 0 25.4 20.6 46 46 46 25.4 0 46-20.6 46-46 0-25.4-20.6-46-46-46zm0 4c23.1 0 42 18.8 42 42 0 23.2-18.8 42-42 42-23.2 0-42-18.8-42-42 0-23.2 18.9-42 42-42z"/><path fill-rule="evenodd" class="b" d="m72 111l39-24-39-22z"/></svg>